<?xml version="1.0"?>
<svg xmlns="http://www.w3.org/2000/svg" xmlns:xlink="http://www.w3.org/1999/xlink" version="1.1" id="Capa_1" x="0px" y="0px" width="512px" height="512px" viewBox="0 0 612 612" style="enable-background:new 0 0 612 612;" xml:space="preserve" class=""><g><g>
	<g id="_x33__1_">
		<g>
			<path d="M61.2,122.4h489.6c33.782,0,61.2-27.387,61.2-61.2S584.613,0,550.8,0H61.2C27.387,0,0,27.387,0,61.2     S27.387,122.4,61.2,122.4z M550.8,244.8H61.2C27.387,244.8,0,272.187,0,306c0,33.812,27.387,61.2,61.2,61.2h489.6     c33.782,0,61.2-27.388,61.2-61.2C612,272.187,584.613,244.8,550.8,244.8z M550.8,489.6H61.2C27.387,489.6,0,516.987,0,550.8     C0,584.613,27.387,612,61.2,612h489.6c33.782,0,61.2-27.387,61.2-61.2C612,516.987,584.613,489.6,550.8,489.6z" data-original="#000000" class="active-path" data-old_color="#000000" fill="#FFFFFF"/>
		</g>
	</g>
</g></g> </svg>
